<svg xmlns="http://www.w3.org/2000/svg" viewBox="0 0 46.08 55.45"><defs><style>.a{fill:#fff;}</style></defs><title>about-link</title><path class="a" d="M41.37,0H4.71A4.73,4.73,0,0,0,0,4.71V41.37a4.73,4.73,0,0,0,4.71,4.71L2.33,55.45l14.06-9.37h25a4.73,4.73,0,0,0,4.71-4.71V4.71A4.73,4.73,0,0,0,41.37,0Zm-18,6.51A4.29,4.29,0,1,1,19,10.82,4.33,4.33,0,0,1,23.34,6.51Zm5.34,32.36H18c-.48,0-.49,0-.49-.49q0-2.17,0-4.34c0-.4,0-.43.42-.43s.5,0,.74,0,.36-.08.35-.35c0-1.31,0-2.61,0-3.92,0-.8,0-1.6,0-2.4V24c0-.06-.81.09-.75,0-.16,0-.29,0-.41,0s-.36-.09-.36-.34q0-2.3,0-4.6a.28.28,0,0,1,.31-.32h8.84c.58,0,.59,0,.59.61q0,2,0,4.08c0,.11,0,.23,0,.26l0,2.84c0,.13,0,.24,0,.35,0,2.12,0,4.23,0,6.35,0,.31.08.42.4.4s.69,0,1,0,.33.11.33.33q0,2.3,0,4.6C29,38.8,28.92,38.87,28.68,38.87Z"/></svg>