<?xml version="1.0" encoding="utf-8"?>
<!-- Generator: Adobe Illustrator 24.1.0, SVG Export Plug-In . SVG Version: 6.00 Build 0)  -->
<svg version="1.1" id="Capa_1" xmlns="http://www.w3.org/2000/svg" xmlns:xlink="http://www.w3.org/1999/xlink" x="0px" y="0px"
	 viewBox="0 0 28.7 28.7" style="enable-background:new 0 0 28.7 28.7;" xml:space="preserve">
<style type="text/css">
	.st0{fill:#FFFFFF;}
</style>
<g>
	<g>
		<g>
			<path class="st0" d="M3.1,11.1c0,0,0.9-1.1,0.3-2.7C2.9,6.8,1.5,6.2,1.5,6.2s-1,1.4-0.4,2.9C1.7,10.7,3.1,11.1,3.1,11.1z"/>
			<path class="st0" d="M5.6,12c0,0,1.5-0.1,2.4-1.5c0.9-1.4,0.2-2.9,0.2-2.9S6.8,7.8,5.9,9.2C5,10.6,5.6,12,5.6,12z"/>
			<path class="st0" d="M5.8,13.8c-0.7,1.5,0.1,2.7,0.1,2.7s1.5-0.3,2.2-1.8c0.7-1.5-0.2-2.9-0.2-2.9S6.5,12.3,5.8,13.8z"/>
			<path class="st0" d="M9.3,15c0,0-1.3,0.6-1.9,2.2c-0.6,1.6,0.3,2.7,0.3,2.7s1.5-0.5,2-2C10.3,16.4,9.3,15,9.3,15z"/>
			<path class="st0" d="M10.4,23.4c0,0,1.3-0.9,1.4-2.5c0.1-1.6-1.3-2.7-1.3-2.7s-1.1,1-1.2,2.6C9.2,22.5,10.4,23.4,10.4,23.4z"/>
			<path class="st0" d="M5.1,8.1c0,0,1.4-0.5,1.8-2.1c0.4-1.6-0.4-2.9-0.4-2.9s-1.6,0.6-2,2.2C4.1,6.9,5.1,8.1,5.1,8.1z"/>
			<path class="st0" d="M3.1,14.6c0,0,0.5-1.4-0.5-2.7c-1-1.3-2.5-1.5-2.5-1.5s-0.6,1.6,0.4,2.9C1.6,14.6,3.1,14.6,3.1,14.6z"/>
			<path class="st0" d="M4.3,18.2c0,0,0.2-1.4-1.1-2.5c-1.3-1.1-2.8-0.9-2.8-0.9s-0.2,1.7,1.1,2.7C2.8,18.5,4.3,18.2,4.3,18.2z"/>
			<path class="st0" d="M6,21.1c0,0-0.2-1.4-1.8-2.1C2.6,18.4,1.3,19,1.3,19s0.3,1.7,1.8,2.3C4.7,21.9,6,21.1,6,21.1z"/>
			<path class="st0" d="M6.8,22.4c-1.6-0.5-2.9,0.3-2.9,0.3s0.5,1.6,2.1,2c1.6,0.4,2.8-0.5,2.8-0.5S8.4,22.8,6.8,22.4z"/>
			<path class="st0" d="M5.3,9.1L4.6,8.7c0,0.1-3.8,8,6.7,16.9l0.5-0.6C1.8,16.5,5.1,9.4,5.3,9.1z"/>
		</g>
		<g>
			<path class="st0" d="M25.5,11.1c0,0-0.9-1.1-0.3-2.7c0.6-1.6,1.9-2.2,1.9-2.2s1,1.4,0.4,2.9C27,10.7,25.5,11.1,25.5,11.1z"/>
			<path class="st0" d="M23.1,11.9c0,0-1.5-0.1-2.4-1.5c-0.9-1.4-0.2-2.9-0.2-2.9s1.4,0.3,2.4,1.7C23.7,10.6,23.1,11.9,23.1,11.9z"
				/>
			<path class="st0" d="M22.9,13.8c0.7,1.5-0.1,2.7-0.1,2.7s-1.5-0.3-2.2-1.8c-0.7-1.5,0.2-2.9,0.2-2.9S22.2,12.2,22.9,13.8z"/>
			<path class="st0" d="M19.4,15c0,0,1.3,0.6,1.9,2.2c0.6,1.6-0.3,2.7-0.3,2.7s-1.5-0.5-2-2S19.4,15,19.4,15z"/>
			<path class="st0" d="M18.3,23.3c0,0-1.3-0.9-1.4-2.5c-0.1-1.6,1.3-2.7,1.3-2.7s1.1,1,1.2,2.6C19.5,22.5,18.3,23.3,18.3,23.3z"/>
			<path class="st0" d="M23.6,8.1c0,0-1.4-0.5-1.8-2.1c-0.4-1.6,0.4-2.9,0.4-2.9s1.6,0.6,2,2.2C24.5,6.9,23.6,8.1,23.6,8.1z"/>
			<path class="st0" d="M25.5,14.6c0,0-0.5-1.4,0.5-2.7c1-1.3,2.5-1.5,2.5-1.5s0.6,1.6-0.4,2.9C27.1,14.6,25.5,14.6,25.5,14.6z"/>
			<path class="st0" d="M24.4,18.2c0,0-0.2-1.4,1.1-2.5c1.3-1.1,2.8-0.9,2.8-0.9s0.2,1.7-1.1,2.7S24.4,18.2,24.4,18.2z"/>
			<path class="st0" d="M22.7,21.1c0,0,0.2-1.4,1.8-2.1c1.6-0.6,2.9-0.1,2.9-0.1s-0.3,1.7-1.8,2.3C24,21.9,22.7,21.1,22.7,21.1z"/>
			<path class="st0" d="M21.9,22.4c1.6-0.5,2.9,0.3,2.9,0.3s-0.5,1.6-2.1,2.1c-1.6,0.4-2.8-0.5-2.8-0.5S20.3,22.8,21.9,22.4z"/>
			<path class="st0" d="M23.4,9l0.7-0.4c0,0.1,3.8,8-6.7,16.9L16.9,25C26.9,16.5,23.5,9.3,23.4,9z"/>
		</g>
	</g>
</g>
</svg>
