<?xml version="1.0" encoding="utf-8"?>
<!-- Generator: Adobe Illustrator 16.2.1, SVG Export Plug-In . SVG Version: 6.00 Build 0)  -->
<!DOCTYPE svg PUBLIC "-//W3C//DTD SVG 1.1//EN" "http://www.w3.org/Graphics/SVG/1.1/DTD/svg11.dtd">
<svg version="1.1" xmlns="http://www.w3.org/2000/svg" xmlns:xlink="http://www.w3.org/1999/xlink" x="0px" y="0px" width="1050px"
	 height="1050px" viewBox="0 0 1050 1050" enable-background="new 0 0 1050 1050" xml:space="preserve">
<defs>
	<filter id="Adobe_OpacityMaskFilter" filterUnits="userSpaceOnUse" x="129" y="128.869" width="792.131" height="792.131">
		<feColorMatrix  type="matrix" values="1 0 0 0 0  0 1 0 0 0  0 0 1 0 0  0 0 0 1 0"/>
	</filter>
</defs>
<mask maskUnits="userSpaceOnUse" x="129" y="128.869" id="circle_1_">
	<g filter="url(#Adobe_OpacityMaskFilter)">
		<rect x="129" y="129" fill="#FFFFFF" width="792" height="792"/>
		<rect x="428.801" y="479.194" fill="#010101" width="359.106" height="91.742"/>
		<path fill="#010101" d="M558.158,336.731L500.36,525.065l57.798,188.334L236.011,525.065L558.158,336.731z"/>
	</g>
</mask>
<g id="circle" mask="url(#circle_1_)">
	<defs>
		<filter id="Adobe_OpacityMaskFilter_1_" filterUnits="userSpaceOnUse" x="129" y="128.869" width="792.131" height="792.131">
			<feColorMatrix  type="matrix" values="1 0 0 0 0  0 1 0 0 0  0 0 1 0 0  0 0 0 1 0"/>
		</filter>
	</defs>
	<mask maskUnits="userSpaceOnUse" x="129" y="128.869" width="792.131" height="792.131" id="a_1_">
		<rect x="129" y="129" fill="#FFFFFF" filter="url(#Adobe_OpacityMaskFilter_1_)" width="792" height="792"/>
		<rect x="428.736" y="479.194" fill="#010101" width="359.106" height="91.742"/>
		<path fill="#010101" d="M558.093,336.731l-57.798,188.334l57.798,188.334L235.945,525.065L558.093,336.731z"/>
	</mask>
	<g transform="translate(0,-0.01)" mask="url(#a_1_)">
		<ellipse fill="#FFFFFF" cx="525.065" cy="524.945" rx="396.065" ry="396.065"/>
	</g>
</g>
</svg>
