<svg xmlns="http://www.w3.org/2000/svg" width="62.93" height="56.15" viewBox="0 0 62.93 56.15"><defs><style>.a{fill:#fff;}</style></defs><title>chat-link</title><path class="a" d="M57.72,0H5.21A5.22,5.22,0,0,0,0,5.21V40.78A5.22,5.22,0,0,0,5.21,46H6.27L4,56.15,19.08,46H57.72a5.22,5.22,0,0,0,5.21-5.21V5.21A5.22,5.22,0,0,0,57.72,0ZM13.4,19.27a3.91,3.91,0,0,1,3.86,4,3.86,3.86,0,0,1-4,3.91,3.82,3.82,0,0,1-3.91-3.91A3.91,3.91,0,0,1,13.4,19.27Zm18.24,0a3.91,3.91,0,0,1,3.86,4,3.86,3.86,0,0,1-4,3.91,3.82,3.82,0,0,1-3.91-3.91A3.91,3.91,0,0,1,31.64,19.27Zm18.24,0a3.91,3.91,0,0,1,3.86,4,3.86,3.86,0,0,1-4,3.91,3.82,3.82,0,0,1-3.91-3.91A3.91,3.91,0,0,1,49.89,19.27Z"/></svg>