<svg id="Layer_1" data-name="Layer 1" xmlns="http://www.w3.org/2000/svg" viewBox="0 0 74.95 10.2"><title>click-text</title><path d="M645.65,383.88c0-3.17,1.84-5.1,4.41-5.1a3.71,3.71,0,0,1,2.7,1.2l-.72.79a2.64,2.64,0,0,0-2-.88c-1.88,0-3.11,1.51-3.11,3.95s1.23,4,3.11,4a2.82,2.82,0,0,0,2.2-1.08l.72.76a3.8,3.8,0,0,1-3,1.43C647.51,389,645.65,387.09,645.65,383.88Z" transform="translate(-645.65 -378.78)"/><path d="M660.18,379h1.25v8.77h4.86v1.07h-6.11Z" transform="translate(-645.65 -378.78)"/><path d="M673.1,387.73h2.44V380H673.1V379h6.15V380H676.8v7.71h2.45v1.07H673.1Z" transform="translate(-645.65 -378.78)"/><path d="M686.15,383.88c0-3.17,1.84-5.1,4.41-5.1a3.71,3.71,0,0,1,2.7,1.2l-.72.79a2.64,2.64,0,0,0-2-.88c-1.88,0-3.11,1.51-3.11,3.95s1.23,4,3.11,4a2.82,2.82,0,0,0,2.2-1.08l.72.76a3.8,3.8,0,0,1-3,1.43C688,389,686.15,387.09,686.15,383.88Z" transform="translate(-645.65 -378.78)"/><path d="M700.13,379h1.27v4.92h.05l4.12-4.92H707l-5.61,6.7v3.14h-1.27Zm2.79,4.35.76-1,3.69,6.48H706Z" transform="translate(-645.65 -378.78)"/><path d="M716,385.29l-3.3-6.33h1.34l1.47,2.91c.37.76.72,1.51,1.12,2.29h.06c.39-.78.78-1.53,1.16-2.29l1.42-2.91h1.29l-3.3,6.33v3.51H716Z" transform="translate(-645.65 -378.78)"/></svg>