<svg xmlns="http://www.w3.org/2000/svg" width="109.64" height="80.39" viewBox="0 0 109.64 80.39"><defs><style>.a{fill:#fff;}</style></defs><title>game-design-icon</title><path class="a" d="M42,45.68H34.72V38.37a1.83,1.83,0,0,0-1.83-1.83H25.59a1.83,1.83,0,0,0-1.83,1.83v7.31H16.45a1.83,1.83,0,0,0-1.83,1.83v7.31a1.83,1.83,0,0,0,1.83,1.83h7.31v7.31a1.83,1.83,0,0,0,1.83,1.83h7.31a1.83,1.83,0,0,0,1.83-1.83V56.64H42a1.83,1.83,0,0,0,1.83-1.83V47.5A1.83,1.83,0,0,0,42,45.68ZM40.2,53H32.89a1.83,1.83,0,0,0-1.83,1.83v7.31H27.41V54.81A1.83,1.83,0,0,0,25.59,53H18.28V49.33h7.31a1.83,1.83,0,0,0,1.83-1.83V40.19h3.65V47.5a1.83,1.83,0,0,0,1.83,1.83H40.2Z"/><path class="a" d="M32.89,0A7.31,7.31,0,0,0,40.2,7.31h9.14A3.65,3.65,0,0,1,53,11v3.65H49.34v7.31H29.24a29.8,29.8,0,0,0-3.23.18C13.41,23.46,1.59,35.24.19,47.83A29.23,29.23,0,0,0,44.63,76a17.89,17.89,0,0,1,8-2.83,28.18,28.18,0,0,1,4.25,0A18,18,0,0,1,65,76a29.23,29.23,0,0,0,44.41-28.2C108,35.23,96.22,23.45,83.62,22.11a30.33,30.33,0,0,0-3.22-.18H60.3V14.62H56.65V11a7.31,7.31,0,0,0-7.31-7.31H40.2A3.65,3.65,0,0,1,36.55,0M53,18.27h3.65v3.65H53ZM99.46,68.21A25.56,25.56,0,0,1,67,72.91a21.56,21.56,0,0,0-9.81-3.4q-1.16-.08-2.33-.08c-.83,0-1.64,0-2.46.1a21.49,21.49,0,0,0-9.66,3.37A25.58,25.58,0,0,1,3.82,48.23C5,37.41,15.58,26.9,26.41,25.74a26.28,26.28,0,0,1,2.83-.16H80.4a26.88,26.88,0,0,1,2.83.15c10.83,1.16,21.38,11.67,22.58,22.49A25.4,25.4,0,0,1,99.46,68.21Z"/><path class="a" d="M80.4,32.89a7.31,7.31,0,1,0,7.31,7.31A7.31,7.31,0,0,0,80.4,32.89Zm0,11a3.65,3.65,0,1,1,3.65-3.65A3.65,3.65,0,0,1,80.4,43.85Z"/><path class="a" d="M80.4,54.81a7.31,7.31,0,1,0,7.31,7.31A7.31,7.31,0,0,0,80.4,54.81Zm0,11a3.65,3.65,0,1,1,3.65-3.65A3.65,3.65,0,0,1,80.4,65.77Z"/><path class="a" d="M67.61,43.85a7.31,7.31,0,1,0,7.31,7.31A7.31,7.31,0,0,0,67.61,43.85Zm0,11a3.65,3.65,0,1,1,3.65-3.65A3.65,3.65,0,0,1,67.61,54.81Z"/><path class="a" d="M93.19,43.85a7.31,7.31,0,1,0,7.31,7.31A7.31,7.31,0,0,0,93.19,43.85Zm0,11a3.65,3.65,0,1,1,3.65-3.65A3.65,3.65,0,0,1,93.19,54.81Z"/></svg>