<?xml version="1.0" encoding="utf-8"?>
<!-- Generator: Adobe Illustrator 21.1.0, SVG Export Plug-In . SVG Version: 6.00 Build 0)  -->
<svg version="1.1" id="Capa_1" xmlns="http://www.w3.org/2000/svg" xmlns:xlink="http://www.w3.org/1999/xlink" x="0px" y="0px"
	 viewBox="0 0 512 512" style="enable-background:new 0 0 512 512;" xml:space="preserve">
<style type="text/css">
	.st0{fill:#FFFFFF;}
</style>
<path class="st0" d="M507.4,245L266.9,4.5c-2.9-2.9-6.5-4.4-10.3-4.5l0,0h0c-0.2,0-0.4,0-0.6,0c-4,0-7.9,1.5-10.9,4.5L4.6,245
	c-9.7,9.7-2.8,26.4,10.9,26.4h30.9v232.8c0,4.3,3.5,7.7,7.7,7.7h124.3c4.3,0,7.7-3.5,7.7-7.7V300.8h139.8v203.5
	c0,4.3,3.5,7.7,7.7,7.7h124.3c4.3,0,7.7-3.5,7.7-7.7V271.4h30.9C510.3,271.4,517.2,254.8,507.4,245z"/>
</svg>
