<svg xmlns="http://www.w3.org/2000/svg" width="52.51" height="45.99" viewBox="0 0 52.51 45.99"><defs><style>.a{fill:#fff;}</style></defs><title>info-link</title><path class="a" d="M19.08,46H47.3a5.22,5.22,0,0,0,5.21-5.21V5.21A5.22,5.22,0,0,0,47.3,0H5.21A5.22,5.22,0,0,0,0,5.21V40.78A5.22,5.22,0,0,0,5.21,46ZM26.81,5.86a3.66,3.66,0,0,1,3.61,3.71,3.61,3.61,0,0,1-3.71,3.66,3.57,3.57,0,0,1-3.66-3.66A3.66,3.66,0,0,1,26.81,5.86Zm5.56,32.83H21V37.55c2.19-.52,2.52-.86,2.52-3V21c0-2.14-.47-2.61-2.57-3V16.79h9.17V34.65c0,2,.62,2.66,2.28,2.9Z"/></svg>