<svg xmlns="http://www.w3.org/2000/svg" width="52.51" height="45.99" viewBox="0 0 52.51 45.99"><defs><style>.a{fill:#fff;}</style></defs><title>info-link</title><path class="a" d="M19.08,46H47.3a5.22,5.22,0,0,0,5.21-5.21V5.21A5.22,5.22,0,0,0,47.3,0H5.21A5.22,5.22,0,0,0,0,5.21V40.78A5.22,5.22,0,0,0,5.21,46ZM26.33,6a3.84,3.84,0,0,1,3.79,3.89,3.79,3.79,0,0,1-3.89,3.84,3.75,3.75,0,0,1-3.84-3.84A3.85,3.85,0,0,1,26.33,6Zm6.29,32.65H20V37.55c2.19-.52,2.52-.86,2.52-3V21c0-2.14-.47-2.61-2.57-3V16.79H30.34V34.64c0,2,.62,2.66,2.28,2.9Z"/></svg>