<svg xmlns="http://www.w3.org/2000/svg" xmlns:xlink="http://www.w3.org/1999/xlink" viewBox="0 0 39.33 46.77"><defs><style>.a,.c{fill:#fff;stroke-miterlimit:10;}.a{stroke:#000;stroke-width:0.5px;}.b{mask:url(#a);}.c{stroke:#161626;stroke-width:0.39px;}</style><mask id="a" x="-0.41" y="-0.08" width="40.02" height="47.14" maskUnits="userSpaceOnUse"><g transform="translate(0.19 0.19)"><polygon class="a" points="7.04 31.21 3.71 33.2 16.16 40.25 16.16 36.21 7.04 31.21"/><polygon class="a" points="23.09 44.39 19.5 46.44 19.55 28.38 23.1 30.52 23.09 44.39"/><polygon class="a" points="7.04 15.08 7.04 21.68 7.04 31.21 3.71 33.2 3.53 13.53 7.04 15.08"/><polyline class="a" points="19.51 28.38 19.5 46.44 -0.1 35.32 -0.1 11.46 3.53 13.53 3.71 33.2 16.16 40.25 16.16 9.83 19.52 7.89 19.51 24.6"/><polyline class="a" points="19.59 24.41 22.4 22.63 33.7 28.98 30.45 30.82"/><polygon class="a" points="38.92 11.46 35.67 13.29 19.52 3.87 3.53 13.53 -0.1 11.46 19.41 0.01 38.92 11.46"/><polygon class="a" points="35.69 16.9 35.67 13.29 38.92 11.46 38.92 15.02 35.69 16.9"/><polyline class="a" points="19.52 7.49 19.59 24.32 22.4 22.63 22.4 9.49"/><polygon class="a" points="35.67 13.29 35.69 16.9 19.52 7.89 19.52 3.87 35.67 13.29"/><polyline class="a" points="3.53 13.53 7.04 15.08 19.52 7.89 19.52 3.87 3.53 13.53"/><polygon class="a" points="30.46 34.42 30.45 30.82 33.7 28.98 33.7 32.54 30.46 34.42"/><polyline class="a" points="19.6 24.47 30.45 30.82 30.46 34.42 19.55 28.51"/></g></mask></defs><title>logo</title><g class="b"><rect class="c" x="0.19" y="0.19" width="38.94" height="46.38"/></g></svg>