<svg xmlns="http://www.w3.org/2000/svg" xmlns:xlink="http://www.w3.org/1999/xlink" viewBox="0 0 39.02 46.42"><defs><style>.a,.c{fill:#fff;}.a{stroke:#000;stroke-miterlimit:10;stroke-width:0.5px;}.b{mask:url(#a);}</style><mask id="a" x="-0.5" y="-0.29" width="40.02" height="47.14" maskUnits="userSpaceOnUse"><polygon class="a" points="7.15 31.2 3.81 33.19 16.26 40.24 16.26 36.2 7.15 31.2"/><polygon class="a" points="23.2 44.38 19.6 46.42 19.65 28.37 23.2 30.51 23.2 44.38"/><polygon class="a" points="7.15 15.07 7.15 21.66 7.15 31.2 3.81 33.19 3.63 13.51 7.15 15.07"/><polyline class="a" points="19.62 28.37 19.6 46.42 0 35.31 0 11.45 3.63 13.51 3.81 33.19 16.26 40.24 16.26 9.82 19.63 7.88 19.62 24.59"/><polyline class="a" points="19.7 24.4 22.5 22.62 33.8 28.97 30.55 30.81"/><polygon class="a" points="39.02 11.45 35.78 13.28 19.63 3.86 3.63 13.51 0 11.45 19.51 0 39.02 11.45"/><polygon class="a" points="35.8 16.89 35.78 13.28 39.02 11.45 39.02 15.01 35.8 16.89"/><polyline class="a" points="19.63 7.48 19.7 24.31 22.5 22.62 22.5 9.48"/><polygon class="a" points="35.78 13.28 35.8 16.89 19.63 7.88 19.63 3.86 35.78 13.28"/><polyline class="a" points="3.63 13.51 7.15 15.07 19.63 7.88 19.63 3.86 3.63 13.51"/><polygon class="a" points="30.56 34.41 30.55 30.81 33.8 28.97 33.8 32.53 30.56 34.41"/><polyline class="a" points="19.7 24.46 30.55 30.81 30.56 34.41 19.66 28.5"/></mask></defs><title>logo</title><g class="b"><polygon class="c" points="7.15 31.2 3.81 33.19 16.26 40.24 16.26 36.2 7.15 31.2"/><polygon class="c" points="23.2 44.38 19.6 46.42 19.65 28.37 23.2 30.51 23.2 44.38"/><polygon class="c" points="7.15 15.07 7.15 21.66 7.15 31.2 3.81 33.19 3.63 13.51 7.15 15.07"/><polyline class="c" points="19.62 28.37 19.6 46.42 0 35.31 0 11.45 3.63 13.51 3.81 33.19 16.26 40.24 16.26 9.82 19.63 7.88 19.62 24.59"/><polyline class="c" points="19.7 24.4 22.5 22.62 33.8 28.97 30.55 30.81"/><polygon class="c" points="39.02 11.45 35.78 13.28 19.63 3.86 3.63 13.51 0 11.45 19.51 0 39.02 11.45"/><polygon class="c" points="35.8 16.89 35.78 13.28 39.02 11.45 39.02 15.01 35.8 16.89"/><polyline class="c" points="19.63 7.48 19.7 24.31 22.5 22.62 22.5 9.48"/><polygon class="c" points="35.78 13.28 35.8 16.89 19.63 7.88 19.63 3.86 35.78 13.28"/><polyline class="c" points="3.63 13.51 7.15 15.07 19.63 7.88 19.63 3.86 3.63 13.51"/><polygon class="c" points="30.56 34.41 30.55 30.81 33.8 28.97 33.8 32.53 30.56 34.41"/><polyline class="c" points="19.7 24.46 30.55 30.81 30.56 34.41 19.66 28.5"/></g></svg>