<svg id="content" xmlns="http://www.w3.org/2000/svg" viewBox="0 0 68.35 80.79"><defs><style>.cls-1,.cls-2{fill:#fff;stroke:#000;stroke-width:0.56px;}.cls-1{stroke-miterlimit:10;}.cls-2{stroke-linecap:round;stroke-linejoin:round;}</style></defs><title>logo</title><polygon class="cls-1" points="12.87 54.08 7.12 57.51 28.57 69.65 28.57 62.69 12.87 54.08"/><polygon class="cls-1" points="40.52 76.77 34.33 80.3 34.41 49.2 40.53 52.89 40.52 76.77"/><polygon class="cls-1" points="12.87 26.29 12.87 37.65 12.87 54.08 7.12 57.51 6.81 23.61 12.87 26.29"/><polyline class="cls-2" points="34.35 49.2 34.33 80.3 0.56 61.15 0.56 20.06 6.81 23.61 7.12 57.51 28.57 69.65 28.57 17.24 34.37 13.9 34.35 42.69"/><polyline class="cls-2" points="34.49 42.36 39.32 39.3 58.78 50.24 53.19 53.4"/><polygon class="cls-1" points="67.78 20.06 62.19 23.21 34.37 6.98 6.81 23.61 0.56 20.06 34.17 0.33 67.78 20.06"/><polygon class="cls-1" points="62.22 29.43 62.19 23.21 67.78 20.06 67.78 26.18 62.22 29.43"/><polyline class="cls-1" points="34.37 13.21 34.49 42.2 39.32 39.3 39.32 16.66"/><polygon class="cls-1" points="62.19 23.21 62.22 29.43 34.37 13.9 34.37 6.98 62.19 23.21"/><polyline class="cls-1" points="6.81 23.61 12.87 26.29 34.37 13.9 34.37 6.98 6.81 23.61"/><polygon class="cls-1" points="53.21 59.61 53.19 53.4 58.78 50.24 58.78 56.37 53.21 59.61"/><polyline class="cls-1" points="34.5 42.47 53.19 53.4 53.21 59.61 34.42 49.42"/></svg>