<svg xmlns="http://www.w3.org/2000/svg" xmlns:xlink="http://www.w3.org/1999/xlink" width="63.4" height="54.32" viewBox="0 0 63.4 54.32"><defs><style>.a{fill:#fff8f8;stroke-width:2.31px;stroke:url(#a);}.a,.b,.e{stroke-miterlimit:10;}.b,.e{fill:none;}.b{stroke-width:3px;stroke:url(#b);}.c{mask:url(#c);}.d{fill:#fff;}.e{stroke:#fff;stroke-width:4px;}</style><linearGradient id="a" x1="116.01" y1="207.17" x2="209.99" y2="207.17" gradientUnits="userSpaceOnUse"><stop offset="1" stop-color="#161626"/><stop offset="1" stop-color="#59618b"/></linearGradient><linearGradient id="b" x1="125.06" y1="183" x2="199.8" y2="183" xlink:href="#a"/><mask id="c" x="-14.46" y="-11.36" width="93.98" height="83.97" maskUnits="userSpaceOnUse"><g transform="translate(-130.47 -173.71)"><rect class="a" x="117.17" y="169.17" width="91.67" height="76"/><path class="b" d="M189.28,202.15h-52.7c-1.66,0-4-1.36-4-3l-6-32.27a3,3,0,0,1,3-3h65.7a3,3,0,0,1,3,3l-6,32.27A3,3,0,0,1,189.28,202.15Z"/><rect x="157.01" y="198.19" width="10.32" height="11.64" rx="1.75" ry="1.75"/></g></mask></defs><title>portfolio-link</title><g class="c"><rect class="d" y="8.55" width="63.4" height="45.77" rx="3.1" ry="3.1"/><rect class="e" x="20.06" y="2" width="23.8" height="16.59" rx="4.6" ry="4.6"/></g></svg>