<svg xmlns="http://www.w3.org/2000/svg" width="78.4" height="62.33" viewBox="0 0 78.4 62.33"><defs><style>.a{fill:#fff;}</style></defs><title>programming-icon</title><path class="a" d="M77.6,29.15,59.47,9.94a2.94,2.94,0,1,0-4.28,4L71.42,31.16,55.19,48.36a2.94,2.94,0,0,0,4.28,4L77.6,33.18A2.94,2.94,0,0,0,77.6,29.15Z"/><path class="a" d="M23.21,48.35,7,31.16,23.21,14a2.94,2.94,0,0,0-4.28-4L.8,29.15a2.94,2.94,0,0,0,0,4L18.93,52.39a2.94,2.94,0,0,0,4.28-4Z"/><path class="a" d="M44,0A2.94,2.94,0,0,0,40.61,2.5L32,58.94a2.94,2.94,0,0,0,2.46,3.35,3,3,0,0,0,.45,0,2.94,2.94,0,0,0,2.9-2.5L46.42,3.38A2.94,2.94,0,0,0,44,0Z"/></svg>