<svg xmlns="http://www.w3.org/2000/svg" viewBox="0 0 1437 759.26"><defs><style>.a{fill:#fff;}</style></defs><title>stars-bg</title><rect class="a" x="88.17" y="240.37" width="1" height="1"/><rect class="a" x="138.17" y="340.37" width="1" height="1"/><rect class="a" x="48.17" y="390.37" width="1" height="1"/><rect class="a" x="238.17" y="400.37" width="1" height="1"/><rect class="a" x="128.17" y="470.37" width="1" height="1"/><rect class="a" x="38.17" y="540.37" width="1" height="1"/><rect class="a" x="198.17" y="580.37" width="1" height="1"/><rect class="a" x="308.17" y="480.37" width="1" height="1"/><rect class="a" x="438.17" y="460.37" width="1" height="1"/><rect class="a" x="408.17" y="310.37" width="1" height="1"/><rect class="a" x="312.17" y="358.37" width="1" height="1"/><rect class="a" x="232.17" y="268.37" width="1" height="1"/><rect class="a" x="352.17" y="208.37" width="1" height="1"/><rect class="a" x="532.17" y="248.37" width="1" height="1"/><rect class="a" x="542.17" y="348.37" width="1" height="1"/><rect class="a" x="522.17" y="488.37" width="1" height="1"/><rect class="a" x="422.17" y="578.37" width="1" height="1"/><rect class="a" x="332.17" y="618.37" width="1" height="1"/><rect class="a" x="482.17" y="618.37" width="1" height="1"/><rect class="a" x="582.17" y="578.37" width="1" height="1"/><rect class="a" x="682.17" y="518.37" width="1" height="1"/><rect class="a" x="632.17" y="428.37" width="1" height="1"/><rect class="a" x="632.17" y="298.37" width="1" height="1"/><rect class="a" x="722.17" y="188.37" width="1" height="1"/><rect class="a" x="792.17" y="318.37" width="1" height="1"/><rect class="a" x="692.17" y="378.37" width="1" height="1"/><rect class="a" x="912.17" y="248.37" width="1" height="1"/><rect class="a" x="1042.17" y="138.37" width="1" height="1"/><rect class="a" x="1102.17" y="238.37" width="1" height="1"/><rect class="a" x="1022.17" y="558.37" width="1" height="1"/><rect class="a" x="902.17" y="628.37" width="1" height="1"/><rect class="a" x="812.17" y="488.37" width="1" height="1"/><rect class="a" x="1012.17" y="428.37" width="1" height="1"/><rect class="a" x="912.17" y="388.37" width="1" height="1"/><rect class="a" x="1022.17" y="308.37" width="1" height="1"/><rect class="a" x="1182.17" y="308.37" width="1" height="1"/><rect class="a" x="1291.17" y="178.37" width="1" height="1"/><rect class="a" x="1331.17" y="308.37" width="1" height="1"/><rect class="a" x="1161.17" y="438.37" width="1" height="1"/><rect class="a" x="1091.17" y="628.37" width="1" height="1"/><rect class="a" x="1391.17" y="608.37" width="1" height="1"/><rect class="a" x="1281.17" y="548.37" width="1" height="1"/><rect class="a" x="1331.17" y="468.37" width="1" height="1"/><rect class="a" x="1391.17" y="258.37" width="1" height="1"/><rect class="a" x="722.17" y="188.37" width="1" height="1"/><rect class="a" x="592.17" y="58.37" width="1" height="1"/><rect class="a" x="622.17" y="180.37" width="1" height="1"/><rect class="a" x="402.17" y="58.37" width="1" height="1"/><rect class="a" x="192.17" y="138.37" width="1" height="1"/><rect class="a" x="872.17" y="68.37" width="1" height="1"/><rect class="a" x="1202.17" y="48.37" width="1" height="1"/><rect class="a" x="1392.17" y="88.37" width="1" height="1"/></svg>