<svg xmlns="http://www.w3.org/2000/svg" viewBox="0 0 1437 688.72"><defs><style>.a{fill:#fff;}</style></defs><title>stars-fg</title><rect class="a" x="139.77" y="526.07" width="2" height="2"/><rect class="a" x="140.77" y="626.07" width="2" height="2"/><rect class="a" x="250.77" y="465.07" width="2" height="2"/><rect class="a" x="280.77" y="585.07" width="2" height="2"/><rect class="a" x="390.77" y="515.07" width="2" height="2"/><rect class="a" x="410.77" y="615.07" width="2" height="2"/><rect class="a" x="42.77" y="586.07" width="2" height="2"/><rect class="a" x="69.77" y="456.07" width="2" height="2"/><rect class="a" x="249.77" y="326.07" width="2" height="2"/><rect class="a" x="360.77" y="265.07" width="2" height="2"/><rect class="a" x="390.77" y="385.07" width="2" height="2"/><rect class="a" x="500.77" y="315.07" width="2" height="2"/><rect class="a" x="520.77" y="415.07" width="2" height="2"/><rect class="a" x="152.77" y="386.07" width="2" height="2"/><rect class="a" x="179.77" y="256.07" width="2" height="2"/><rect class="a" x="69.77" y="316.07" width="2" height="2"/><rect class="a" x="280.77" y="195.07" width="2" height="2"/><rect class="a" x="119.77" y="166.07" width="2" height="2"/><rect class="a" x="630.77" y="485.07" width="2" height="2"/><rect class="a" x="660.77" y="605.07" width="2" height="2"/><rect class="a" x="770.77" y="535.07" width="2" height="2"/><rect class="a" x="790.77" y="635.07" width="2" height="2"/><rect class="a" x="629.77" y="346.07" width="2" height="2"/><rect class="a" x="740.77" y="285.07" width="2" height="2"/><rect class="a" x="770.77" y="405.07" width="2" height="2"/><rect class="a" x="880.77" y="335.07" width="2" height="2"/><rect class="a" x="900.77" y="435.07" width="2" height="2"/><rect class="a" x="660.77" y="215.07" width="2" height="2"/><rect class="a" x="510.77" y="545.07" width="2" height="2"/><rect class="a" x="450.77" y="195.07" width="2" height="2"/><rect class="a" x="590.77" y="125.07" width="2" height="2"/><rect class="a" x="370.77" y="105.07" width="2" height="2"/><rect class="a" x="500.77" y="75.07" width="2" height="2"/><rect class="a" x="550.77" y="645.07" width="2" height="2"/><rect class="a" x="800.77" y="105.07" width="2" height="2"/><rect class="a" x="820.77" y="205.07" width="2" height="2"/><polyline class="a" points="690.76 77.07 692.76 77.07 692.76 75.07"/><polyline class="a" points="880.76 557.07 882.76 557.07 882.76 555.07"/><polyline class="a" points="1020.76 617.07 1022.76 617.07 1022.76 615.07"/><rect class="a" x="1000.77" y="485.07" width="2" height="2"/><rect class="a" x="1110.77" y="415.07" width="2" height="2"/><rect class="a" x="1130.77" y="515.07" width="2" height="2"/><rect class="a" x="1000.77" y="345.07" width="2" height="2"/><rect class="a" x="1040.77" y="205.07" width="2" height="2"/><rect class="a" x="1130.77" y="305.07" width="2" height="2"/><rect class="a" x="950.77" y="125.07" width="2" height="2"/><rect class="a" x="1110.77" y="55.07" width="2" height="2"/><rect class="a" x="1250.77" y="365.07" width="2" height="2"/><rect class="a" x="1270.77" y="465.07" width="2" height="2"/><rect class="a" x="1270.77" y="255.07" width="2" height="2"/><rect class="a" x="1190.77" y="555.07" width="2" height="2"/><rect class="a" x="1330.77" y="625.07" width="2" height="2"/><rect class="a" x="1400.77" y="515.07" width="2" height="2"/><rect class="a" x="1380.77" y="375.07" width="2" height="2"/><rect class="a" x="1410.77" y="165.07" width="2" height="2"/><rect class="a" x="1200.77" y="135.07" width="2" height="2"/><rect class="a" x="1330.77" y="45.07" width="2" height="2"/></svg>