<svg xmlns="http://www.w3.org/2000/svg" width="85.16" height="63.32" viewBox="0 0 85.16 63.32"><defs><style>.a{fill:#fff;}</style></defs><title>ui-icon</title><path class="a" d="M72.32,50.57h-8.4a1.25,1.25,0,0,0,0,2.49h8.4a1.25,1.25,0,0,0,0-2.49Z"/><path class="a" d="M46.78,50.57h-8.4a1.25,1.25,0,1,0,0,2.49h8.4a1.25,1.25,0,1,0,0-2.49Z"/><circle class="a" cx="8.14" cy="6.29" r="1.68"/><circle class="a" cx="15.03" cy="6.29" r="1.68"/><circle class="a" cx="21.91" cy="6.29" r="1.68"/><path class="a" d="M80.59,0h-76A4.58,4.58,0,0,0,0,4.57V31.66a1.25,1.25,0,1,0,2.49,0V12.58H82.67v5.79a1.25,1.25,0,1,0,2.49,0V4.57A4.58,4.58,0,0,0,80.59,0ZM2.49,10.08V4.57A2.08,2.08,0,0,1,4.57,2.49h76a2.08,2.08,0,0,1,2.08,2.08v5.51Z"/><path class="a" d="M83.91,22.93a1.25,1.25,0,0,0-1.25,1.25V58.74a2.08,2.08,0,0,1-2.08,2.08h-76a2.08,2.08,0,0,1-2.08-2.08V37.49a1.25,1.25,0,0,0-2.49,0V58.74a4.58,4.58,0,0,0,4.57,4.57h76a4.58,4.58,0,0,0,4.57-4.57V24.17A1.25,1.25,0,0,0,83.91,22.93Z"/><path class="a" d="M38.36,22.49h8.4a1.25,1.25,0,0,0,0-2.49h-8.4a1.25,1.25,0,0,0,0,2.49Z"/><path class="a" d="M48,26.28A1.25,1.25,0,0,0,46.76,25h-8.4a1.25,1.25,0,0,0,0,2.49h8.4A1.25,1.25,0,0,0,48,26.28Z"/><path class="a" d="M17,35.12a1.25,1.25,0,0,0-1.25,1.25v5H8.64a1.25,1.25,0,0,0-1.25,1.25V56a1.25,1.25,0,0,0,1.25,1.25h16.8A1.25,1.25,0,0,0,26.69,56V42.58a1.25,1.25,0,0,0-1.25-1.25H18.29V37.61h23v3.72H34.18a1.25,1.25,0,0,0-1.25,1.25V56a1.25,1.25,0,0,0,1.25,1.25H51A1.25,1.25,0,0,0,52.23,56V42.58A1.25,1.25,0,0,0,51,41.33H43.83V37.61h23v3.72H59.72a1.25,1.25,0,0,0-1.25,1.25V56a1.25,1.25,0,0,0,1.25,1.25h16.8A1.25,1.25,0,0,0,77.77,56V42.58a1.25,1.25,0,0,0-1.25-1.25H69.37v-5a1.25,1.25,0,0,0-1.25-1.25H43.83V31.73H51a1.25,1.25,0,0,0,1.25-1.25V17A1.25,1.25,0,0,0,51,15.79H34.18A1.25,1.25,0,0,0,32.93,17V30.48a1.25,1.25,0,0,0,1.25,1.25h7.15v3.39ZM24.2,54.78H9.89V43.83H24.2Zm25.54,0H35.43V43.83H49.73Zm25.54,0H61V43.83H75.27ZM35.43,18.29H49.73V29.24H35.43Z"/><path class="a" d="M62.67,46.78A1.25,1.25,0,0,0,63.92,48h8.4a1.25,1.25,0,0,0,0-2.49h-8.4A1.25,1.25,0,0,0,62.67,46.78Z"/><path class="a" d="M37.13,46.78A1.25,1.25,0,0,0,38.38,48h8.4a1.25,1.25,0,1,0,0-2.49h-8.4A1.25,1.25,0,0,0,37.13,46.78Z"/><path class="a" d="M11.59,46.78A1.25,1.25,0,0,0,12.84,48h8.4a1.25,1.25,0,1,0,0-2.49h-8.4A1.25,1.25,0,0,0,11.59,46.78Z"/><path class="a" d="M21.24,50.57h-8.4a1.25,1.25,0,0,0,0,2.49h8.4a1.25,1.25,0,0,0,0-2.49Z"/></svg>