<?xml version="1.0" encoding="utf-8"?>
<!-- Generator: Adobe Illustrator 23.1.1, SVG Export Plug-In . SVG Version: 6.00 Build 0)  -->
<svg version="1.1" id="Layer_1" xmlns="http://www.w3.org/2000/svg" xmlns:xlink="http://www.w3.org/1999/xlink" x="0px" y="0px"
	 viewBox="0 0 35 35" style="enable-background:new 0 0 35 35;" xml:space="preserve">
<style type="text/css">
	.st0{fill:#FFFFFF;}
	.st1{fill:none;}
</style>
<title>linked-in-button</title>
<g>
	<g>
		<path class="st0" d="M12.3,9.9c0,1.2-0.9,2.1-2.3,2.1c-1.3,0-2.2-0.9-2.2-2.1c0-1.2,0.9-2.1,2.2-2.1C11.4,7.8,12.3,8.7,12.3,9.9
			 M8,13.7h4.2v13.5H8V13.7z"/>
		<path class="st0" d="M14.7,18c0-1.7-0.1-3.1-0.1-4.3h3.6l0.2,1.9h0.1c0.6-0.9,1.9-2.2,4.2-2.2c2.8,0,4.8,1.9,4.8,5.8v8h-4.2v-7.5
			c0-1.7-0.6-2.9-2.1-2.9c-1.2,0-1.9,0.8-2.2,1.6c-0.1,0.3-0.1,0.7-0.1,1.1v7.8h-4.2V18z"/>
	</g>
	<g>
		<rect x="0.5" y="0.5" class="st1" width="34" height="34"/>
	</g>
</g>
</svg>
