<svg id="Layer_1" data-name="Layer 1" xmlns="http://www.w3.org/2000/svg" viewBox="0 0 18 18"><defs><style>.cls-1{fill:#069;}.cls-2{fill:none;stroke:#000;stroke-miterlimit:10;stroke-width:0.5px;}.cls-3{fill:#fff;}</style></defs><title>linked-in-button</title><rect class="cls-1" x="0.25" y="0.25" width="17.5" height="17.5"/><rect class="cls-2" x="0.25" y="0.25" width="17.5" height="17.5"/><path class="cls-3" d="M5.74,4.4A1.27,1.27,0,0,1,4.37,5.68a1.28,1.28,0,1,1,0-2.55A1.25,1.25,0,0,1,5.74,4.4M3.11,6.68H5.66v8.19H3.11Z"/><path class="cls-3" d="M7.18,9.29c0-1,0-1.87-.06-2.61H9.33l.11,1.14h.05A2.94,2.94,0,0,1,12,6.5C13.7,6.5,15,7.62,15,10v4.84H12.41V10.33c0-1.05-.37-1.77-1.29-1.77a1.4,1.4,0,0,0-1.31.95,2,2,0,0,0-.08.64v4.72H7.18Z"/></svg>