<svg id="Layer_1" data-name="Layer 1" xmlns="http://www.w3.org/2000/svg" viewBox="0 0 40.02 47.14"><defs><style>.cls-1{stroke:#f2f0d8;stroke-miterlimit:10;stroke-width:0.5px;}</style></defs><title>logo</title><polygon class="cls-1" points="7.65 31.49 4.31 33.48 16.76 40.53 16.76 36.49 7.65 31.49"/><polygon class="cls-1" points="23.7 44.66 20.1 46.71 20.15 28.66 23.7 30.8 23.7 44.66"/><polygon class="cls-1" points="7.65 15.36 7.65 21.95 7.65 31.49 4.31 33.48 4.13 13.8 7.65 15.36"/><polyline class="cls-1" points="20.12 28.66 20.1 46.71 0.5 35.6 0.5 11.74 4.13 13.8 4.31 33.48 16.76 40.53 16.76 10.11 20.13 8.17 20.12 24.88"/><polyline class="cls-1" points="20.2 24.69 23 22.91 34.3 29.26 31.05 31.1"/><polygon class="cls-1" points="39.52 11.74 36.28 13.57 20.13 4.15 4.13 13.8 0.5 11.74 20.01 0.29 39.52 11.74"/><polygon class="cls-1" points="36.3 17.18 36.28 13.57 39.52 11.74 39.52 15.3 36.3 17.18"/><polyline class="cls-1" points="20.13 7.77 20.2 24.6 23 22.91 23 9.77"/><polygon class="cls-1" points="36.28 13.57 36.3 17.18 20.13 8.17 20.13 4.15 36.28 13.57"/><polyline class="cls-1" points="4.13 13.8 7.65 15.36 20.13 8.17 20.13 4.15 4.13 13.8"/><polygon class="cls-1" points="31.06 34.7 31.05 31.1 34.3 29.26 34.3 32.82 31.06 34.7"/><polyline class="cls-1" points="20.2 24.75 31.05 31.1 31.06 34.7 20.16 28.79"/></svg>